<svg xmlns="http://www.w3.org/2000/svg" version="1.1" xmlns:xlink="http://www.w3.org/1999/xlink" xmlns:svgjs="http://svgjs.dev/svgjs" width="2000" height="1250" viewBox="0 0 2000 1250"><g transform="matrix(1,0,0,1,0,0)"><svg viewBox="0 0 512 320" data-background-color="#1a365d" preserveAspectRatio="xMidYMid meet" height="1250" width="2000" xmlns="http://www.w3.org/2000/svg" xmlns:xlink="http://www.w3.org/1999/xlink"><g id="tight-bounds" transform="matrix(1,0,0,1,0,0)"><svg viewBox="0 0 512 320" height="320" width="512"><g><svg></svg></g><g><svg viewBox="0 0 512 320" height="320" width="512"><g><path d="M96 160c0-88.366 71.634-160 160-160 88.366 0 160 71.634 160 160 0 88.366-71.634 160-160 160-88.366 0-160-71.634-160-160z" fill="#ffffff" fill-rule="nonzero" stroke="none" stroke-width="1" stroke-linecap="butt" stroke-linejoin="miter" stroke-miterlimit="10" stroke-dasharray="" stroke-dashoffset="0" font-family="none" font-weight="none" font-size="none" text-anchor="none" style="mix-blend-mode: normal" data-fill-palette-color="tertiary"></path></g><g transform="matrix(1,0,0,1,183.58465011286683,80)"><svg viewBox="0 0 144.83069977426635 160" height="160" width="144.83069977426635"><g><svg viewBox="0 0 144.83069977426635 160" height="160" width="144.83069977426635"><g><svg viewBox="0 0 144.83069977426635 160" height="160" width="144.83069977426635"><g><svg viewBox="0 0 144.83069977426635 160" height="160" width="144.83069977426635"><g id="textblocktransform"><svg viewBox="0 0 144.83069977426635 160" height="160" width="144.83069977426635" id="textblock"><g><svg viewBox="0 0 144.83069977426635 160" height="160" width="144.83069977426635"><g transform="matrix(1,0,0,1,0,0)"><svg width="144.83069977426635" viewBox="1.05 -21.85 20.05 22.150000000000002" height="160" data-palette-color="#1a365d"><path d="M11.65-21.85L11.65-21.85Q14.15-21.85 16.28-20.75 18.4-19.65 19.68-17.43 20.95-15.2 20.95-11.85L20.95-11.85Q19.85-11.65 18.05-11.5 16.25-11.35 14.1-11.28 11.95-11.2 9.8-11.2L9.8-11.2Q8.2-11.2 7.05-11.25 5.9-11.3 5.5-11.35L5.5-11.35 5.5-13.75Q6.05-13.75 7.18-13.75 8.3-13.75 9.7-13.8 11.1-13.85 12.43-13.95 13.75-14.05 14.65-14.2L14.65-14.2Q14.6-15.25 14.08-16.32 13.55-17.4 12.5-18.15 11.45-18.9 9.8-18.9L9.8-18.9Q8.8-17.95 8.2-16.28 7.6-14.6 7.6-12.4L7.6-12.4Q7.6-7.9 9.47-5.78 11.35-3.65 14.1-3.65L14.1-3.65Q16.9-3.65 20-5.65L20-5.65 21.1-3.35Q18.95-1.4 16.5-0.55 14.05 0.3 11.65 0.3L11.65 0.3Q8.85 0.3 6.43-0.93 4-2.15 2.53-4.6 1.05-7.05 1.05-10.7L1.05-10.7Q1.05-14.4 2.58-16.88 4.1-19.35 6.53-20.6 8.95-21.85 11.65-21.85Z" opacity="1" transform="matrix(1,0,0,1,0,0)" fill="#000000" class="wordmark-text-0" data-fill-palette-color="quaternary" id="text-0"></path></svg></g></svg></g></svg></g></svg></g><g></g></svg></g></svg></g></svg></g></svg></g><defs></defs></svg><rect width="512" height="320" fill="none" stroke="none" visibility="hidden"></rect></g></svg></g></svg>
